<svg width="200" height="200" viewBox="0 0 200 200" xmlns="http://www.w3.org/2000/svg">
  <circle cx="100" cy="100" r="75" fill="#e6f7ff" />
  <path d="M100 35 C60 35 35 60 35 100 C35 135 60 165 100 165 C140 165 165 135 165 100 C165 60 140 35 100 35 Z M145 85 C139 85 134 80 134 74 C134 71 135 68 137 66 C125 56 110 51 95 51 C64 51 40 75 40 105 C40 135 64 155 95 155 C126 155 150 135 150 105 C150 98 148 92 145 85 Z" fill="#b3e0ff" />
  <circle cx="146" cy="71" r="10" fill="#ffffff" />
  <path d="M85 115 L115 115 L115 120 L85 120 Z" fill="#4da6ff" />
  <path d="M100 95 C105 95 110 100 110 105 L105 105 C105 102 102 100 100 100 C98 100 95 102 95 105 L90 105 C90 100 95 95 100 95 Z" fill="#4da6ff" />
  <path d="M83 95 L86 95 L86 105 L83 105 Z" fill="#4da6ff" />
  <path d="M117 95 L114 95 L114 105 L117 105 Z" fill="#4da6ff" />
</svg>